<svg width="22" height="22" viewBox="0 0 22 22" fill="none" xmlns="http://www.w3.org/2000/svg">
<path d="M11.0001 3.66663C11.9725 3.66663 12.9052 4.05293 13.5928 4.74057C14.2804 5.4282 14.6667 6.36083 14.6667 7.33329C14.6667 8.30575 14.2804 9.23838 13.5928 9.92602C12.9052 10.6136 11.9725 11 11.0001 11C10.0276 11 9.09499 10.6136 8.40736 9.92602C7.71972 9.23838 7.33341 8.30575 7.33341 7.33329C7.33341 6.36083 7.71972 5.4282 8.40736 4.74057C9.09499 4.05293 10.0276 3.66663 11.0001 3.66663ZM11.0001 12.8333C15.0517 12.8333 18.3334 14.4741 18.3334 16.5V18.3333H3.66675V16.5C3.66675 14.4741 6.94841 12.8333 11.0001 12.8333Z" fill="#9D9D9D"/>
</svg>
